<svg preserveAspectRatio="none" width="100%" height="100%" overflow="visible" style="display: block;" viewBox="0 0 35 35" fill="none" xmlns="http://www.w3.org/2000/svg">
<g id="Pin">
<path id="Pin_2" d="M16.7708 10.2083C17.7378 10.2083 18.6651 10.5924 19.3488 11.2762C20.0326 11.9599 20.4167 12.8872 20.4167 13.8542C20.4167 14.3329 20.3224 14.807 20.1391 15.2494C19.9559 15.6917 19.6874 16.0936 19.3488 16.4322C19.0103 16.7707 18.6084 17.0393 18.166 17.2225C17.7237 17.4057 17.2496 17.5 16.7708 17.5C15.8039 17.5 14.8766 17.1159 14.1928 16.4322C13.5091 15.7484 13.125 14.8211 13.125 13.8542C13.125 12.8872 13.5091 11.9599 14.1928 11.2762C14.8766 10.5924 15.8039 10.2083 16.7708 10.2083ZM16.7708 11.6667C16.1907 11.6667 15.6343 11.8971 15.224 12.3074C14.8138 12.7176 14.5833 13.274 14.5833 13.8542C14.5833 14.4343 14.8138 14.9907 15.224 15.401C15.6343 15.8112 16.1907 16.0417 16.7708 16.0417C17.351 16.0417 17.9074 15.8112 18.3176 15.401C18.7279 14.9907 18.9583 14.4343 18.9583 13.8542C18.9583 13.274 18.7279 12.7176 18.3176 12.3074C17.9074 11.8971 17.351 11.6667 16.7708 11.6667ZM9.91667 18.025L16.7708 29.2979L23.625 18.025C24.3688 16.7708 24.7917 15.3854 24.7917 13.8542C24.7917 11.7269 23.9466 9.68678 22.4424 8.18258C20.9382 6.67838 18.8981 5.83333 16.7708 5.83333C14.6436 5.83333 12.6034 6.67838 11.0992 8.18258C9.59505 9.68678 8.75 11.7269 8.75 13.8542C8.75 15.3854 9.17292 16.7708 9.91667 18.025ZM24.8646 18.7833L16.7708 32.0833L8.67708 18.7833C7.80208 17.3396 7.29167 15.6625 7.29167 13.8542C7.29167 11.3401 8.29036 8.92907 10.068 7.15138C11.8457 5.37369 14.2568 4.375 16.7708 4.375C19.2849 4.375 21.6959 5.37369 23.4736 7.15138C25.2513 8.92907 26.25 11.3401 26.25 13.8542C26.25 15.6625 25.7396 17.3396 24.8646 18.7833Z" fill="var(--fill-0, #BBAFA8)"/>
</g>
</svg>
