<svg preserveAspectRatio="none" width="100%" height="100%" overflow="visible" style="display: block;" viewBox="0 0 35 35" fill="none" xmlns="http://www.w3.org/2000/svg">
<g id="Snail">
<path id="Snail_2" d="M14.0509 20.9879C14.9334 21.992 16.4539 22.2214 17.5726 21.5662C18.7546 20.8744 19.0966 19.2394 18.1459 18.2902C17.7418 17.8863 17.1538 17.7155 16.589 17.912C16.2299 18.0376 15.9012 18.544 15.547 19.0369C15.4411 18.1072 16.3759 17.297 17.3096 17.3836C18.4429 17.4886 19.2476 18.4561 19.2658 19.5921C19.2926 21.2258 18.0461 22.5362 16.3991 22.7034C14.7521 22.8705 13.105 21.7651 12.5013 20.1436C11.7989 18.256 12.3661 16.2465 13.8756 14.9007C15.4837 13.467 17.7564 13.1034 19.7661 13.9636C22.1642 14.9898 23.6859 17.2714 23.8259 19.8739C23.9671 22.4838 22.8581 24.9301 21.0054 26.5687C17.0722 30.0449 11.1841 29.1481 7.82193 25.0765C5.50661 22.2727 4.70805 18.633 5.66729 15.1325C7.49082 8.47552 14.4587 4.74926 21.0334 6.8735C27.5837 8.98919 31.2782 16.3648 29.1065 23.1109C28.8923 23.7771 29.0858 24.4079 29.479 24.9386C28.588 25.9635 27.3889 26.6676 26.1534 27.2142C25.0286 27.712 24.0024 28.2842 22.7339 28.5112C23.8429 27.7632 24.8557 27.1629 25.6859 26.1368C29.5995 21.2966 28.8132 14.0429 23.9123 10.1312C21.2999 8.04604 17.9682 7.33104 14.5244 8.19611C11.7441 8.89524 9.14879 10.9634 7.75254 13.8038C5.51269 18.361 7.13293 23.9625 11.6382 26.3601C14.4429 27.8523 17.8014 27.601 20.2056 25.5438C22.3578 23.7027 23.2963 20.789 22.3018 18.1377C21.4789 15.9439 19.4253 14.4602 17.1161 14.6323C15.3461 14.764 13.8561 15.9024 13.3497 17.5398C12.9687 18.7721 13.1671 19.9837 14.0509 20.9891V20.9879Z" fill="var(--fill-0, #BBAFA8)"/>
</g>
</svg>
