<svg preserveAspectRatio="none" width="100%" height="100%" overflow="visible" style="display: block;" viewBox="0 0 35.5 35.5" fill="none" xmlns="http://www.w3.org/2000/svg">
<g id="Date">
<path id="Date_2" d="M10.4999 2.91653H11.9999C12.3978 2.91653 12.7793 3.07018 13.0606 3.34367C13.3419 3.61716 13.4999 3.98809 13.4999 4.37487V5.8332H20.9999V4.37487C20.9999 3.98809 21.158 3.61716 21.4393 3.34367C21.7206 3.07018 22.1021 2.91653 22.4999 2.91653H23.9999C24.3978 2.91653 24.7793 3.07018 25.0606 3.34367C25.3419 3.61716 25.4999 3.98809 25.4999 4.37487V5.8332C26.6934 5.8332 27.838 6.29414 28.6819 7.11461C29.5258 7.93508 29.9999 9.04788 29.9999 10.2082V26.2499C29.9999 27.4102 29.5258 28.523 28.6819 29.3435C27.838 30.1639 26.6934 30.6249 25.4999 30.6249H8.99995C7.80647 30.6249 6.66188 30.1639 5.81797 29.3435C4.97405 28.523 4.49995 27.4102 4.49995 26.2499V10.2082C4.49995 9.04788 4.97405 7.93508 5.81797 7.11461C6.66188 6.29414 7.80647 5.8332 8.99995 5.8332V4.37487C8.99995 3.98809 9.15798 3.61716 9.43929 3.34367C9.72059 3.07018 10.1021 2.91653 10.4999 2.91653ZM22.4999 5.8332H23.9999V4.37487H22.4999V5.8332ZM11.9999 5.8332V4.37487H10.4999V5.8332H11.9999ZM8.99995 7.29153C8.2043 7.29153 7.44124 7.59882 6.87863 8.14581C6.31602 8.69279 5.99995 9.43465 5.99995 10.2082V11.6665H28.4999V10.2082C28.4999 9.43465 28.1839 8.69279 27.6213 8.14581C27.0587 7.59882 26.2956 7.29153 25.4999 7.29153H8.99995ZM5.99995 26.2499C5.99995 27.0234 6.31602 27.7653 6.87863 28.3123C7.44124 28.8592 8.2043 29.1665 8.99995 29.1665H25.4999C26.2956 29.1665 27.0587 28.8592 27.6213 28.3123C28.1839 27.7653 28.4999 27.0234 28.4999 26.2499V13.1249H5.99995V26.2499ZM17.9999 18.9582H25.4999V26.2499H17.9999V18.9582ZM19.4999 20.4165V24.7915H23.9999V20.4165H19.4999Z" fill="var(--fill-0, #BBAFA8)"/>
</g>
</svg>
