<svg preserveAspectRatio="none" width="100%" height="100%" overflow="visible" style="display: block;" viewBox="0 0 25.0329 33.1904" fill="none" xmlns="http://www.w3.org/2000/svg">
<path id="n" d="M12.1122 2.36499C6.76418 2.57904 2.51728 6.7185 2.31956 12.2164L2.18453 32.6469C1.82607 33.3879 0.403472 33.3632 0 32.6222L0.0755507 11.836C0.0884103 8.39964 1.87269 5.13286 4.37871 2.99398C8.73331 -0.722312 14.9413 -0.974236 19.6431 2.21186C22.9255 4.43637 25.004 8.19712 25.0088 12.2971L25.0329 32.4987C25.0329 32.9482 24.2967 33.1722 23.9881 33.1705C23.6151 33.1689 23.0895 33.0141 22.8275 32.6173L22.7327 12.1752C22.7053 6.37931 17.7608 2.13941 12.1138 2.36499H12.1122Z" fill="var(--fill-0, white)"/>
</svg>
