<svg preserveAspectRatio="none" width="100%" height="100%" overflow="visible" style="display: block;" viewBox="0 0 32.3001 30.2924" fill="none" xmlns="http://www.w3.org/2000/svg">
<path id="##" d="M11.5956 19.8534C12.761 21.2085 14.7688 21.5181 16.246 20.6339C17.8068 19.7003 18.2585 17.4939 17.0031 16.2129C16.4694 15.6678 15.693 15.4373 14.9472 15.7024C14.473 15.872 14.039 16.5553 13.5712 17.2206C13.4313 15.9659 14.6659 14.8726 15.8988 14.9895C17.3953 15.1311 18.4579 16.4368 18.482 17.9697C18.5173 20.1745 16.8713 21.9429 14.6964 22.1685C12.5215 22.3941 10.3466 20.9023 9.54934 18.714C8.62184 16.1668 9.37091 13.4549 11.3642 11.6387C13.4876 9.704 16.4887 9.21332 19.1426 10.3741C22.3093 11.7589 24.3187 14.838 24.5035 18.3501C24.69 21.8721 23.2256 25.1734 20.779 27.3848C15.5853 32.0758 7.81007 30.8656 3.37028 25.371C0.312896 21.5872 -0.741598 16.6755 0.525078 11.9516C2.93305 2.96791 12.1341 -2.06069 20.816 0.805976C29.4657 3.66111 34.3444 13.6146 31.4767 22.7184C31.1937 23.6174 31.4493 24.4687 31.9685 25.185C30.7919 26.5681 29.2085 27.5182 27.577 28.2558C26.0917 28.9276 24.7366 29.6998 23.0616 30.0061C24.526 28.9968 25.8634 28.1867 26.9597 26.8019C32.1277 20.27 31.0893 10.4812 24.6176 5.2023C21.168 2.38832 16.7684 1.42344 12.2209 2.59085C8.5495 3.53433 5.12241 6.32525 3.27865 10.1584C0.320932 16.3084 2.46046 23.8677 8.40966 27.1032C12.1132 29.117 16.5482 28.7778 19.7229 26.0017C22.5649 23.517 23.8043 19.585 22.491 16.007C21.4043 13.0465 18.6926 11.0443 15.6432 11.2765C13.306 11.4543 11.3384 12.9905 10.6697 15.2002C10.1666 16.8632 10.4286 18.4983 11.5956 19.8551V19.8534Z" fill="var(--fill-0, white)"/>
</svg>
