<svg preserveAspectRatio="none" width="100%" height="100%" overflow="visible" style="display: block;" viewBox="0 0 22.2892 33.3625" fill="none" xmlns="http://www.w3.org/2000/svg">
<path id="s" d="M16.7502 32.2907C13.008 33.7825 8.87845 33.7051 5.26168 32.1327C3.20735 31.2386 1.65937 29.8522 0.3734 28.0607C-0.0702584 27.4432 -0.218144 26.75 0.492351 26.1738C2.30717 24.7017 1.93746 28.2105 6.16989 30.0498C10.9119 32.1113 17.8191 31.1941 19.6018 26.6068C20.8524 23.3878 19.3719 20.2181 16.3901 18.8745C14.511 18.0282 12.6222 17.5441 10.5872 17.0979C7.03309 16.3174 2.88103 15.0298 1.35716 11.5967C0.0920947 8.74654 0.736685 5.51928 2.84567 3.2569C4.71675 1.24974 7.29029 0.284855 9.98921 0.0230518L11.8233 0C15.0768 0.296381 18.139 1.69102 20.2014 4.26295C20.6772 4.85571 20.682 5.48964 20.1081 6.01324C18.7804 7.22676 18.5489 5.30522 16.591 4.01103C13.4388 1.92977 9.35426 1.72395 6.04129 3.5681C4.40329 4.4803 3.31505 6.11533 3.10286 7.96771C2.85692 10.1082 3.87605 12.0627 5.75517 13.0111C9.48446 14.8932 14.1188 14.8816 18.3801 17.335C21.1771 18.9453 22.5467 21.8598 22.2493 25.1348C21.9519 28.4098 19.8477 31.0575 16.7518 32.2924L16.7502 32.2907Z" fill="var(--fill-0, white)"/>
</svg>
